<?xml version="1.0" encoding="iso-8859-1"?>
<!-- Uploaded to: SVG Repo, www.svgrepo.com, Generator: SVG Repo Mixer Tools -->
<!DOCTYPE svg PUBLIC "-//W3C//DTD SVG 1.1//EN" "http://www.w3.org/Graphics/SVG/1.1/DTD/svg11.dtd">
<svg fill="#1b3c82" height="70px" width="800px" version="1.1" id="Capa_1" xmlns="http://www.w3.org/2000/svg" xmlns:xlink="http://www.w3.org/1999/xlink"
	 viewBox="0 0 208.535 208.535" xml:space="preserve">
<path style="fill:#FFFFFF;" d="M84.373,150.185H62.667c-0.865,0-1.565,0.701-1.565,1.566l0,0c0,0.865,0.701,1.566,1.565,1.566
	h21.706c0.865,0,1.565-0.701,1.565-1.566l0,0C85.938,150.885,85.237,150.185,84.373,150.185z"/>
<path style="fill:#FFFFFF;" d="M142.017,150.185h-14.133c-0.865,0-1.565,0.701-1.565,1.566l0,0c0,0.865,0.701,1.566,1.565,1.566
	h14.133c0.865,0,1.565-0.701,1.565-1.566l0,0C143.583,150.885,142.882,150.185,142.017,150.185z"/>
<path d="M199.136,161.392h-27.508v-32.817c0-4.143-3.357-7.5-7.5-7.5h-8.325l-2.056-113.71C153.673,3.275,150.337,0,146.249,0
	h-14.595c-4.089,0-7.425,3.275-7.499,7.364l-2.056,113.71h-7.528l-2.038-99.133c-0.084-4.081-3.416-7.346-7.498-7.346H90.439
	c-4.082,0-7.414,3.265-7.498,7.346l-2.038,99.133h-40.1c-4.143,0-7.5,3.357-7.5,7.5v23.902H9.399c-4.143,0-7.5,3.357-7.5,7.5v41.059
	c0,4.143,3.357,7.5,7.5,7.5h28.403c0.514,0,1.015-0.052,1.5-0.151c0.485,0.098,0.986,0.151,1.5,0.151h117.975h5.352h35.008
	c4.143,0,7.5-3.357,7.5-7.5v-32.144C206.636,164.749,203.279,161.392,199.136,161.392z M84.373,160.815H62.667
	c-4.999,0-9.065-4.066-9.065-9.065s4.066-9.065,9.065-9.065h21.706c4.999,0,9.065,4.066,9.065,9.065S89.372,160.815,84.373,160.815z
	 M142.017,160.815h-14.133c-4.999,0-9.065-4.066-9.065-9.065s4.066-9.065,9.065-9.065h14.133c4.999,0,9.065,4.066,9.065,9.065
	S147.016,160.815,142.017,160.815z"/>
</svg>