<?xml version="1.0" encoding="UTF-8"?><svg id="RCJY_Logo" xmlns="http://www.w3.org/2000/svg" xmlns:xlink="http://www.w3.org/1999/xlink" viewBox="0 0 800 300"><defs><style>.cls-1{fill:url(#linear-gradient);}.cls-2{fill:#052976;}.cls-3{fill:#8142ff;}.cls-4{fill:#20cc76;}.cls-5{fill:#103576;}.cls-6{fill:#0a9d76;}.cls-7{fill:#2633ff;}.cls-8{fill:#4cc4ff;}</style><linearGradient id="linear-gradient" x1="617.04" y1="194.25" x2="617.04" y2="124.87" gradientTransform="matrix(1, 0, 0, 1, 0, 0)" gradientUnits="userSpaceOnUse"><stop offset=".13" stop-color="#bc9470"/><stop offset=".15" stop-color="#be9773"/><stop offset=".34" stop-color="#d5b9a1"/><stop offset=".53" stop-color="#e7d5c4"/><stop offset=".71" stop-color="#f4e8de"/><stop offset=".87" stop-color="#fcf4ed"/><stop offset="1" stop-color="#fff9f3"/></linearGradient></defs><g><g><path class="cls-8" d="M755.46,157.93v31.46c0,3.45-2.21,6.52-5.49,7.61l-5.61,1.87-56.28-70.02,61.98,21.49c3.23,1.12,5.39,4.16,5.39,7.58Z"/><polygon class="cls-7" points="688.09 128.85 744.37 198.87 647.59 231.15 647.59 114.81 688.09 128.85"/><polygon class="cls-3" points="647.59 78.47 688.09 128.85 647.59 114.81 647.59 78.47"/><polygon class="cls-2" points="647.59 114.81 647.59 231.15 608.21 220.85 586.49 190.2 586.49 93.62 586.49 93.62 586.49 93.62 647.59 114.81"/><polygon class="cls-5" points="647.59 78.47 647.59 114.81 586.49 93.62 647.59 78.47 647.59 78.47"/><path class="cls-3" d="M647.59,78.47l-61.1,15.15h0l-58.21,14.44-32.17-45.39c-3.39-4.78,.03-11.4,5.89-11.4h117.96c3.65,0,7.1,1.65,9.38,4.49l18.25,22.71Z"/><polygon class="cls-7" points="647.59 231.15 621.65 239.8 608.21 220.85 647.59 231.15"/><path class="cls-8" d="M608.21,220.85l13.43,18.95-25.65,8.55c-4.68,1.56-9.51-1.92-9.51-6.85v-26.33l21.72,5.68Z"/><polygon class="cls-6" points="586.49 190.2 608.21 220.85 586.49 215.17 586.49 190.2"/><path class="cls-4" d="M586.49,190.2v24.97l-52.22-13.66c-3.53-.92-5.99-4.11-5.99-7.76V108.05l58.21,82.14Z"/><polygon class="cls-5" points="586.49 93.62 586.49 190.2 528.28 108.05 586.49 93.62"/></g><path class="cls-1" d="M630.92,169.53c.2,.03,.4,.05,.6,.06l-3.27,3.54-.17,.19c-.32-.06-.65-.13-.97-.2-.15-.03-.31-.06-.46-.1-.2-.05-.39-.09-.59-.14-.12-.03-.24-.06-.36-.09-.09-.02-.18-.05-.26-.07-.17-.05-.34-.09-.51-.14-.25-.07-.5-.15-.75-.23-.16-.05-.32-.1-.48-.15-.63-.21-1.25-.44-1.87-.69-.14-.06-.29-.12-.43-.18-.06-.03-.13-.05-.19-.08-.15-.06-.3-.13-.45-.2-.16-.07-.32-.14-.48-.22-.13-.06-.25-.12-.38-.18-.13-.06-.25-.12-.38-.18-.19-.1-.39-.2-.57-.3-.19-.1-.38-.21-.57-.31,.63-.4,1.24-.82,1.83-1.26,.45-.33,.93-.67,1.43-1,.22-.15,.44-.3,.67-.44,.18,.08,.36,.16,.55,.24,.33,.14,.67,.28,1.01,.41,.24,.09,.48,.18,.72,.26,.14,.05,.29,.1,.43,.15,.15,.05,.31,.1,.46,.15,.18,.06,.37,.12,.56,.17,.2,.06,.4,.12,.6,.17,.66,.18,1.33,.33,2,.47,.12,.03,.24,.05,.36,.07,.18,.04,.35,.06,.53,.09,.2,.03,.39,.06,.59,.09,.14,.02,.29,.04,.43,.06,.12,.02,.24,.03,.37,.05Zm-11.79-6.91v-22.24c3.09,3.21,5.57,7.08,5.97,11.42,1.39-.95,2.61-2.15,3.58-3.52-1.04-3.8-3.23-7.18-5.86-10.07,3.73,1.13,6.65,3.09,8.26,4.35,.15-.83,.23-1.68,.23-2.55s-.08-1.73-.23-2.56c-2.09-1.32-4.86-2.72-8.13-3.55,2.14-1.39,4-2.39,5.11-2.96-.95-1.16-2.08-2.16-3.35-2.97-1.49,.81-3.47,1.97-5.59,3.45v-5.03h0v-.51c-.68-.1-1.38-.15-2.09-.15s-1.41,.05-2.09,.15v5.54c-2.13-1.48-4.1-2.64-5.6-3.45-1.27,.81-2.4,1.81-3.35,2.97,1.11,.57,2.97,1.57,5.11,2.96-3.27,.83-6.04,2.23-8.13,3.55-.15,.83-.23,1.68-.23,2.56s.08,1.72,.22,2.55c1.61-1.26,4.53-3.23,8.28-4.36-2.63,2.89-4.83,6.27-5.87,10.08,.98,1.37,2.19,2.57,3.58,3.52,.4-4.34,2.88-8.21,5.97-11.42v22.22h0v.02c-4.34-2.81-10.31-5.63-17.42-6.22l1.76,2.62,1.37,2.04c5.04,1.03,9.32,3.24,12.54,5.4-3.3,1.72-6.89,2.78-10.64,3.13l3.27,3.54,.17,.19c3.91-.73,7.64-2.16,11.04-4.24,.81-.49,1.59-1.02,2.36-1.58,.46-.34,.96-.69,1.48-1.03,3.21-2.16,7.49-4.37,12.53-5.4l1.37-2.04,1.76-2.62c-7.11,.59-13.08,3.41-17.42,6.22Z"/></g><g><g><polygon class="cls-2" points="389.19 132.32 385.51 128.64 381.61 132.54 385.51 136.44 389.19 132.76 392.87 136.44 396.78 132.54 392.87 128.64 389.19 132.32"/><polygon class="cls-2" points="297.96 93.58 301.64 97.26 305.54 93.36 301.64 89.46 297.96 93.14 294.28 89.46 290.37 93.36 294.28 97.26 297.96 93.58"/><path class="cls-2" d="M375.75,96.49h-3.21c-1.65,0-2.07-.8-2.07-1.84,0-1.18,.61-1.73,2.22-1.73,.61,0,1.41,.09,2.22,.24l.05-2.32c-1.08-.14-2.17-.28-3.11-.28-2.97,0-4.71,1.18-4.71,3.58,0,.9,.24,1.74,.8,2.36h-1.6v2.26h9.43v-2.26Z"/><path class="cls-2" d="M297.74,124.05c2.83,0,5.56-.84,8.25-2.26,1.18,1.27,2.88,1.98,4.95,1.98h55.76c3.33,0,5.71-1.87,6.66-3.81,.61,1.92,2.51,3.81,4.93,3.81h9.75c3.33,0,5.71-1.87,6.66-3.81,.61,1.92,2.51,3.81,4.93,3.81h30.74c3.94,0,6.75-1.41,8.54-3.84v.03c.6,1.92,2.51,3.81,4.93,3.81h4.66c4.43,0,8.02-3.59,8.02-8.02v-26.41h-6.79v26.97c0,1-.81,1.81-1.81,1.81h-3.69c-2.17,0-3.18-1.35-3.18-3.56h-.01c.17-1.05,.27-2.17,.27-3.35,0-8.11-5.61-12.72-12.16-12.77-4.71,0-8.41,2.51-11.57,5.67h-.85c-5.28,0-9.85,2.74-9.85,8.44,0,2.17,.72,4.22,2.47,5.58h-10.04c-2.17,0-3.18-1.35-3.18-3.56v-12.83h-6.79v14.57c0,1-.81,1.81-1.81,1.81h-9.55c-2.17,0-3.18-1.35-3.18-3.56v-12.83h-6.79v14.57c0,1-.81,1.81-1.81,1.81h-52.46c-1.6,0-2.59-1.13-2.59-2.78v-17.05h-6.79v2.5c-1.32-.14-2.55-.29-3.77-.29-6.99,0-12.54,3.71-12.54,10.28v3.56c0,5.8,3.63,9.71,9.71,9.71Zm130.59-19.97c3.25,0,6.18,2.5,6.18,7.4,0,3.82-1.75,6.65-5.38,6.65h-2.35c.15-1.13,.19-2.21,.19-3.29,0-3.92-1.27-6.93-3.72-8.77,1.51-1.08,3.11-1.98,5.09-1.98Zm-11.45,5.14c3.15,0,4.14,2.68,4.14,5.7,0,1.13-.14,2.12-.37,3.2h-3.25c-2.83,0-4.57-1.83-4.57-4.57,0-2.5,1.46-4.34,4.06-4.34Zm-122.06,1.93c0-3.44,2.62-5,6.06-5,1.14,0,2.23,.15,3.46,.33v10.69c-1.56,.71-3.08,1.23-4.64,1.23-2.93,0-4.89-1.88-4.89-4.34v-2.92Z"/><rect class="cls-2" x="462.97" y="89.34" width="6.79" height="34.43"/><polygon class="cls-2" points="215.01 184.97 211.33 181.29 207.42 185.19 211.33 189.09 215.01 185.41 218.69 189.09 222.59 185.19 218.69 181.29 215.01 184.97"/><path class="cls-2" d="M243.82,154.12c-6.83,0-11.03,4.67-11.03,11.46s3.96,10.74,10.51,10.74h4.95c-.29,4.48-3.82,5.86-8.35,5.86-1.32,0-2.5-.09-3.82-.23v5.56c1.6,.15,3.01,.29,4.48,.24,8.53-.09,14.52-4.34,14.52-12.77v-8.82c0-7.12-4.15-12.04-11.27-12.04Zm4.48,16.66h-4.62c-2.97,0-4.15-2.45-4.15-5.37,0-3.11,1.27-5.66,4.34-5.66s4.43,2.68,4.43,5.84v5.19Z"/><rect class="cls-2" x="196.73" y="143.38" width="5.65" height="5.65" transform="translate(-44.94 183.93) rotate(-45)"/><rect class="cls-2" x="172.3" y="182.37" width="5.65" height="5.65" transform="translate(-79.66 178.07) rotate(-45)"/><path class="cls-2" d="M212.3,176.42h1.61c4.43,0,8.02-3.59,8.02-8.02v-14.02h-6.79v14.57c0,1-.81,1.81-1.81,1.81h-7.2c-2.17,0-3.18-1.35-3.18-3.56v-12.83h-6.79v14.57c0,1-.81,1.81-1.81,1.81h-9.57c-2.17,0-3.18-1.35-3.18-3.56v-12.83h-6.79v14.57c0,1-.81,1.81-1.81,1.81H67.07c1.98-1.7,3.01-4.15,3.01-7.12,0-6.36-4.9-9.65-11.35-9.65-3.82,0-7.22,1.08-10.56,2.92l-1.98,5.36,6.13,10.04c-4.76,.9-7.78,4.34-7.78,9.38,0,7.07,5.99,9.66,13.11,9.66,2.64,0,4.99-.23,7.63-.61v-5.43c-2.31,.29-4.52,.47-6.88,.47-3.77,0-7.07-.76-7.07-4.53,0-3.25,2.5-4.85,5.75-4.85h116.44c3.33,0,5.71-1.87,6.66-3.81,.61,1.92,2.51,3.81,4.93,3.81h9.77c3.33,0,5.71-1.87,6.66-3.81,.61,1.92,2.51,3.81,4.93,3.81h5.84Zm-153.48-5.65h-.8l-5.66-9.29c1.65-1.08,3.39-1.83,5.47-1.83,3.15,0,5.6,1.79,5.6,5.13,0,3.02-1.93,4.91-4.62,5.99Z"/><rect class="cls-2" x="418.37" y="182.37" width="5.65" height="5.65" transform="translate(-7.58 352.07) rotate(-45)"/><rect class="cls-2" x="390.06" y="182.37" width="5.65" height="5.65" transform="translate(-15.87 332.05) rotate(-45)"/><path class="cls-2" d="M462.97,168.96c0,1-.81,1.81-1.81,1.81h-4.71c-2.17,0-3.18-1.35-3.18-3.56v-25.22h-6.79v26.97c0,1-.81,1.81-1.81,1.81h-6.72c-2.17,0-3.18-1.35-3.18-3.56v-5c0-7.45-5.42-11.36-12.82-11.36-3.39,0-9.46,.58-12.76,1.1v5.44c2.97-.47,8.66-.94,11.68-.9,4.1,0,7.12,1.84,7.12,5.89v6.57c0,1-.81,1.81-1.81,1.81h-23.62c-2.17,0-3.18-1.35-3.18-3.56v-12.83h-6.79v14.57c0,1-.81,1.81-1.81,1.81h-9.55c-2.17,0-3.18-1.35-3.18-3.56v-12.83h-6.79v14.57c0,1-.81,1.81-1.81,1.81h-70.71c-2.17,0-3.18-1.35-3.18-3.56v-25.22h-6.79v32.9c0,4-2.74,6.36-6.7,6.36-4.38,0-6.74-3.25-6.74-8.2,0-1.65,.44-4.48,.72-6.69h-6.79c-.33,2.4-.76,5.47-.76,7.87,0,8.01,5.75,12.44,13.72,12.44,7.16,0,12.84-3.73,13.25-10.51,.04-.72,.03-2.25,.02-3.47,.63,1.9,2.52,3.74,4.91,3.74h69.59c3.33,0,5.71-1.87,6.66-3.81,.61,1.92,2.51,3.81,4.93,3.81h9.75c3.33,0,5.71-1.87,6.66-3.81,.61,1.92,2.51,3.81,4.93,3.81h23.82c3.33,0,5.71-1.87,6.66-3.81,.61,1.92,2.51,3.81,4.93,3.81h6.92c3.33,0,5.71-1.87,6.66-3.81,.61,1.92,2.51,3.81,4.93,3.81h4.96c4.43,0,8.02-3.59,8.02-8.02v-26.41h-6.79v26.97Z"/><polygon class="cls-2" points="371.1 184.97 367.41 181.29 363.51 185.19 367.41 189.09 371.1 185.41 374.78 189.09 378.68 185.19 374.78 181.29 371.1 184.97"/><polygon class="cls-2" points="55.04 93.58 58.72 97.26 62.62 93.36 58.72 89.46 55.04 93.14 51.35 89.46 47.45 93.36 51.35 97.26 55.04 93.58"/><rect class="cls-2" x="266.02" y="89.34" width="6.79" height="34.43"/><path class="cls-2" d="M252.77,116.31c0,1-.81,1.82-1.82,1.82h-6.36c-2.18,0-3.18-1.35-3.18-3.56h0c.11-.59,.17-1.17,.17-1.73,0-6.56-4.66-10.98-11.38-10.98s-11.38,4.42-11.38,10.98c0,2.71,.73,4.58,1.05,5.29h-5.99c-2.17,0-3.18-1.35-3.18-3.56v-25.22h-6.79v26.97c0,1-.81,1.82-1.81,1.82h-6.33c-2.17,0-3.18-1.35-3.18-3.56v-.85c0-6.05-4.91-10.95-10.95-10.95h-27.1l13.85-9.12-3.15-4.5-20.35,14.31,1.91,4.96h34.43c2.53,0,4.58,2.05,4.58,4.58v3.32c0,1.01-.81,1.82-1.82,1.82h-45.85c-2.17,0-3.18-1.35-3.18-3.56v-12.83h-6.79v14.57c0,1-.81,1.82-1.82,1.82h-55.55c-1.6,0-2.59-1.13-2.59-2.78v-17.05h-6.79v2.5c-1.32-.14-2.55-.29-3.77-.29-6.99,0-12.54,3.71-12.54,10.28v3.56c0,5.8,3.63,9.71,9.71,9.71,2.83,0,5.56-.84,8.25-2.26,1.18,1.27,2.88,1.98,4.95,1.98h58.85c3.33,0,5.71-1.87,6.66-3.81,.61,1.92,2.51,3.81,4.93,3.81h46.05c3.33,0,5.71-1.87,6.66-3.81,.61,1.92,2.51,3.81,4.93,3.81h6.52c3.33,0,5.71-1.87,6.66-3.81,.61,1.92,2.51,3.81,4.93,3.81h17.29c3.09,0,5.65-1.61,7.41-3.81,.61,1.92,2.51,3.81,4.93,3.81h7.71c4.43,0,8.02-3.59,8.02-8.02v-26.41h-6.79v26.97Zm-191.35,.87c-1.56,.71-3.08,1.23-4.64,1.23-2.93,0-4.89-1.88-4.89-4.34v-2.92c0-3.44,2.62-5,6.06-5,1.14,0,2.24,.15,3.46,.33v10.69Zm173.37-3.61c0,2.51-2.04,4.56-4.56,4.56h-3.95s-.69-2.1-.69-4.63c0-3.53,1.3-5.95,4.56-5.99h.06c3.26,.03,4.57,2.46,4.57,5.99v.08Z"/><polygon class="cls-2" points="128.02 132.76 131.7 136.44 135.6 132.54 131.7 128.64 128.02 132.32 124.34 128.64 120.43 132.54 124.34 136.44 128.02 132.76"/></g><g><path class="cls-2" d="M56.23,225.05l-3.5-5.31c-.56-.84-1.31-1.35-2.3-1.35h-1.74v6.66h-3.59v-17.72h7.34c3.66,0,6.59,1.72,6.59,5.31,0,2.69-1.63,4.45-4.13,5.15,.99,.7,1.76,1.54,2.44,2.55l3.07,4.72h-4.18Zm-4.13-9.32c1.85,0,3.39-.9,3.32-2.78-.07-1.81-1.54-2.66-3.32-2.66h-3.41v5.44h3.41Z"/><path class="cls-2" d="M74.41,218.66c0,4.04-2.78,6.64-6.82,6.61-4.04,0-6.77-2.6-6.77-6.61s2.78-6.55,6.8-6.57c4.02,0,6.8,2.55,6.8,6.57Zm-3.61,0c0-2.05-1.13-3.61-3.21-3.61s-3.18,1.58-3.18,3.66,1.11,3.61,3.18,3.61,3.21-1.58,3.21-3.66Z"/><path class="cls-2" d="M79.1,212.48l3.43,8.53,2.96-8.53h3.41l-6.73,17.88h-3.18l1.96-5.35-5.82-12.53h3.97Z"/><path class="cls-2" d="M102.72,212.43v12.62h-3.39v-1.94c-.9,1.33-2.3,2.17-4.27,2.17-3.66,0-5.42-2.93-5.42-6.61s1.74-6.61,5.42-6.61c1.96,0,3.36,.84,4.27,2.19v-1.81h3.39Zm-3.59,6.25v-.07c-.02-1.99-.95-3.61-2.93-3.61s-2.93,1.63-2.93,3.63,.93,3.68,2.96,3.68,2.91-1.63,2.91-3.63Z"/><path class="cls-2" d="M108.99,207.04v18.02h-3.43v-18.02h3.43Z"/><path class="cls-2" d="M130.37,208.07v2.66l-.27,.23c-1.44-.59-2.84-.99-4.33-.99-3.73,0-5.89,2.51-5.89,6.16s2.3,6.25,6.07,6.25c1.51,0,2.93-.41,4.29-1.15l.29,.23v2.8c-1.6,.65-3.18,1.02-4.92,1.02-5.67,0-9.5-3.57-9.5-9.26,0-5.35,3.36-8.99,8.74-8.99,1.94,0,3.75,.32,5.53,1.04Z"/><path class="cls-2" d="M145.56,218.66c0,4.04-2.78,6.64-6.82,6.61-4.04,0-6.77-2.6-6.77-6.61s2.78-6.55,6.8-6.57c4.02,0,6.8,2.55,6.8,6.57Zm-3.61,0c0-2.05-1.13-3.61-3.21-3.61s-3.18,1.58-3.18,3.66,1.11,3.61,3.18,3.61,3.21-1.58,3.21-3.66Z"/><path class="cls-2" d="M168,217.6v7.45h-3.41v-6.57c0-1.85-.5-3.43-2.42-3.43-2.14,0-2.55,2.05-2.62,4.33v5.67h-3.41v-6.57c0-1.85-.5-3.43-2.42-3.43-2.14,0-2.55,2.05-2.62,4.33v5.67h-3.41v-12.62h3.23v2.03c.81-1.44,2.17-2.37,4.11-2.37,2.14,0,3.48,1.13,4.09,2.82,.79-1.69,2.21-2.82,4.36-2.82,3.16,0,4.52,2.44,4.52,5.51Z"/><path class="cls-2" d="M190.89,217.6v7.45h-3.41v-6.57c0-1.85-.5-3.43-2.42-3.43-2.14,0-2.55,2.05-2.62,4.33v5.67h-3.41v-6.57c0-1.85-.5-3.43-2.42-3.43-2.14,0-2.55,2.05-2.62,4.33v5.67h-3.41v-12.62h3.23v2.03c.81-1.44,2.17-2.37,4.11-2.37,2.14,0,3.48,1.13,4.09,2.82,.79-1.69,2.21-2.82,4.36-2.82,3.16,0,4.52,2.44,4.52,5.51Z"/><path class="cls-2" d="M209.49,212.68v2.82l-.18,.14c-1.49-.32-2.91-.56-4.22-.56s-2.35,.23-2.35,.93c0,.86,1.56,1.02,2.98,1.33,2.53,.54,4.7,1.47,4.7,3.97,0,2.82-2.8,3.97-6.14,3.97-1.69,0-3.3-.18-4.88-.75v-2.8l.18-.14c1.47,.45,2.91,.72,4.49,.72,1.26,0,2.62-.27,2.62-1.11,0-.9-1.63-1.15-3-1.44-2.53-.59-4.61-1.42-4.61-3.84,0-2.73,2.71-3.82,5.94-3.82,1.56,0,2.98,.25,4.47,.56Z"/><path class="cls-2" d="M222.32,212.68v2.82l-.18,.14c-1.49-.32-2.91-.56-4.22-.56s-2.35,.23-2.35,.93c0,.86,1.56,1.02,2.98,1.33,2.53,.54,4.7,1.47,4.7,3.97,0,2.82-2.8,3.97-6.14,3.97-1.69,0-3.3-.18-4.88-.75v-2.8l.18-.14c1.47,.45,2.91,.72,4.49,.72,1.26,0,2.62-.27,2.62-1.11,0-.9-1.63-1.15-3-1.44-2.53-.59-4.61-1.42-4.61-3.84,0-2.73,2.71-3.82,5.94-3.82,1.56,0,2.98,.25,4.47,.56Z"/><path class="cls-2" d="M244.51,218.66c0,4.04-2.78,6.64-6.82,6.61-4.04,0-6.77-2.6-6.77-6.61s2.78-6.55,6.8-6.57c4.02,0,6.8,2.55,6.8,6.57Zm-3.61,0c0-2.05-1.13-3.61-3.21-3.61s-3.18,1.58-3.18,3.66,1.11,3.61,3.18,3.61,3.21-1.58,3.21-3.66Z"/><path class="cls-2" d="M249.86,212.43v2.05c.81-1.44,2.17-2.39,4.13-2.39,3.16,0,4.52,2.44,4.52,5.51v7.45h-3.41v-6.57c0-1.85-.5-3.43-2.35-3.43-2.35,0-2.69,2.53-2.69,5.1l-.02-.02v4.92h-3.41v-12.62h3.23Z"/><path class="cls-2" d="M264.73,212.57h1.83v-1.92c0-2.71,2.08-4.2,4.79-4.2,1.17,0,2.26,.2,3.3,.75l-.02,2.57-.11,.16c-.79-.29-1.56-.52-2.42-.52-1.26,0-2.1,.77-2.1,2.05v1.11h3.91v2.96h-3.91v9.53h-3.43v-9.53h-1.83v-2.96Z"/><path class="cls-2" d="M288.3,218.66c0,4.04-2.78,6.64-6.82,6.61-4.04,0-6.77-2.6-6.77-6.61s2.78-6.55,6.8-6.57c4.02,0,6.8,2.55,6.8,6.57Zm-3.61,0c0-2.05-1.13-3.61-3.21-3.61s-3.18,1.58-3.18,3.66,1.11,3.61,3.18,3.61,3.21-1.58,3.21-3.66Z"/><path class="cls-2" d="M293.61,212.43v2.12c1.11-1.81,2.8-2.6,4.94-2.46v2.98c-.36-.07-.7-.09-1.04-.09-2.1,0-3.68,1.08-3.68,3.34v6.73h-3.41v-12.62h3.18Z"/><path class="cls-2" d="M313.11,207.33v12.53c0,3.36-2.3,5.42-5.73,5.42-1.17,0-2.3-.23-3.5-.54v-2.57l.29-.23c.77,.23,1.51,.41,2.26,.41,1.85-.02,2.96-1.24,2.96-3.03v-11.99h3.73Z"/><path class="cls-2" d="M324.53,225.05v-1.94c-.77,1.35-2.17,2.17-4.15,2.17-3.25,0-5.01-2.14-5.01-5.44v-7.4h3.43v6.59c0,1.83,.74,3.3,2.62,3.3,2.12,0,2.91-1.87,2.91-4.04l.02,.02v-5.87h3.41v12.62h-3.23Z"/><path class="cls-2" d="M343.52,218.69c0,3.66-1.76,6.61-5.44,6.61-1.96,0-3.36-.84-4.24-2.19v1.92l-.99,.02h-2.23v-18.02h3.43v6.95c.9-1.2,2.23-1.92,4.06-1.92,3.66,0,5.42,2.96,5.42,6.61Zm-3.61,0c0-2.01-.93-3.66-2.93-3.66s-2.93,1.65-2.93,3.66,.9,3.66,2.91,3.66,2.96-1.65,2.96-3.66Z"/><path class="cls-2" d="M358.04,212.43v12.62h-3.39v-1.94c-.9,1.33-2.3,2.17-4.27,2.17-3.66,0-5.42-2.93-5.42-6.61s1.74-6.61,5.42-6.61c1.96,0,3.36,.84,4.27,2.19v-1.81h3.39Zm-3.59,6.25v-.07c-.02-1.99-.95-3.61-2.93-3.61s-2.93,1.63-2.93,3.63,.93,3.68,2.96,3.68,2.91-1.63,2.91-3.63Z"/><path class="cls-2" d="M364.31,212.43v12.62h-3.43v-12.62h3.43Zm.44-3.97l-2.15,2.15-2.15-2.15,2.15-2.15,2.15,2.15Z"/><path class="cls-2" d="M370.56,207.04v18.02h-3.43v-18.02h3.43Z"/><path class="cls-2" d="M393.75,225.05h-4.2l-1.33-1.24c-1.56,1.02-3.32,1.6-5.03,1.6-3.27,0-5.44-1.9-5.44-4.42,0-2.1,1.33-3.27,2.91-4.13-1.04-1.06-1.74-2.33-1.74-3.77,0-2.33,2.05-4.27,4.99-4.27s4.88,1.72,4.88,4.11-1.67,3.43-3.43,4.31l2.98,2.78c.68-.97,1.08-2.19,1.08-3.59h3.14c0,2.08-.86,3.97-2.17,5.49l3.36,3.14Zm-7.61-3.16l-3.59-3.3c-.88,.52-1.49,1.13-1.49,2.03,0,1.04,.97,1.92,2.42,1.92,.9,0,1.83-.23,2.66-.65Zm-2.62-6.37c1.33-.61,2.35-1.26,2.35-2.35,0-.97-.86-1.69-1.9-1.69-1.31,0-1.94,.86-1.94,1.72,0,.75,.56,1.4,1.49,2.33Z"/><path class="cls-2" d="M414.56,207.33l-5.67,10.2v7.52h-3.73v-7.52l-6.21-10.2h4.33l3.95,7.07,3.72-7.07h3.59Z"/><path class="cls-2" d="M425.33,212.43v12.62h-3.39v-1.94c-.9,1.33-2.3,2.17-4.27,2.17-3.66,0-5.42-2.93-5.42-6.61s1.74-6.61,5.42-6.61c1.96,0,3.36,.84,4.27,2.19v-1.81h3.39Zm-3.59,6.25v-.07c-.02-1.99-.95-3.61-2.93-3.61s-2.93,1.63-2.93,3.63,.93,3.68,2.96,3.68,2.91-1.63,2.91-3.63Z"/><path class="cls-2" d="M431.4,212.43v2.05c.81-1.44,2.17-2.39,4.13-2.39,3.16,0,4.52,2.44,4.52,5.51v7.45h-3.41v-6.57c0-1.85-.5-3.43-2.35-3.43-2.35,0-2.69,2.53-2.69,5.1l-.02-.02v4.92h-3.41v-12.62h3.23Z"/><path class="cls-2" d="M455.51,218.69c0,3.66-1.76,6.61-5.44,6.61-1.96,0-3.36-.84-4.24-2.19v1.92l-.99,.02h-2.24v-18.02h3.43v6.95c.9-1.2,2.24-1.92,4.06-1.92,3.66,0,5.42,2.96,5.42,6.61Zm-3.61,0c0-2.01-.93-3.66-2.93-3.66s-2.93,1.65-2.93,3.66,.9,3.66,2.91,3.66,2.96-1.65,2.96-3.66Z"/><path class="cls-2" d="M466.53,225.05v-1.94c-.77,1.35-2.17,2.17-4.15,2.17-3.25,0-5.01-2.14-5.01-5.44v-7.4h3.43v6.59c0,1.83,.74,3.3,2.62,3.3,2.12,0,2.91-1.87,2.91-4.04l.02,.02v-5.87h3.41v12.62h-3.23Z"/><g><rect class="cls-2" x="225.34" y="212.43" width="3.43" height="12.62"/><rect class="cls-2" x="225.53" y="206.94" width="3.05" height="3.05" transform="translate(-80.9 221.61) rotate(-45)"/></g><g><rect class="cls-2" x="193.44" y="212.43" width="3.43" height="12.62"/><rect class="cls-2" x="193.64" y="206.94" width="3.05" height="3.05" transform="translate(-90.24 199.05) rotate(-45)"/></g></g></g></svg>